<svg xmlns="http://www.w3.org/2000/svg" viewBox="0 0 500 500"><g id="freepik--background-simple--inject-31"><path d="M437.74,180.31c-9.62-23.44-24.36-45.18-43.3-61.66C372.22,99.33,337.17,84.43,307.54,95c-30.67,10.9-51.18,37-73.92,58.28-8,7.46-16.72,14.53-27.09,18.69-47.45,19-79.68-6.92-121.76,22.48S39.1,282.61,66.86,319.79s94,32,144.15,32,42.08,35.45,129.83,36.31c89.73.89,118.05-94.3,108.35-165.54A173.18,173.18,0,0,0,437.74,180.31Z" style="fill:#92E3A9"></path><path d="M437.74,180.31c-9.62-23.44-24.36-45.18-43.3-61.66C372.22,99.33,337.17,84.43,307.54,95c-30.67,10.9-51.18,37-73.92,58.28-8,7.46-16.72,14.53-27.09,18.69-47.45,19-79.68-6.92-121.76,22.48S39.1,282.61,66.86,319.79s94,32,144.15,32,42.08,35.45,129.83,36.31c89.73.89,118.05-94.3,108.35-165.54A173.18,173.18,0,0,0,437.74,180.31Z" style="fill:#fff;opacity:0.7000000000000001"></path></g></svg>